# xmcd
#
# Track frame offsets: 
#        150
#        17565
#        42060
#        58727
#        74762
#        92532
#        111295
#        130777
#        159685
#        180102
#        198280
#        213202
#        230247
#        246305
#        263522
#        280752
#
# Disc length: 3910 seconds
#
# Revision: 2
# Processed by: cddbd v1.5.2PL0 Copyright (c) Steve Scherf et al.
# Submitted via: ExactAudioCopy v0.99pb4
#
DISCID=dc0f4410
DTITLE=Various Artist - Number Ones - Silky Soul
DYEAR=1998
DGENRE=Pop
TTITLE0=Luther Vandross - Never Too Much
TTITLE1=Stephanie Mills - Never Knew Love Like This Before
TTITLE2=Emotions - Best Of My Love
TTITLE3=Tavares - Heaven Must Be Missing An Angel
TTITLE4=Jennifer Holliday - No Frills Love
TTITLE5=Earth Wind And Fire - Can't Hide Love
TTITLE6=Rufus - At Midnight (My Love Will Lift You Up)
TTITLE7=Harold Melvin And The Blue Notes - The Love I Lost (Part 1)
TTITLE8=Ollie And Jerry - Breakin'...There's No Stopping Us
TTITLE9=LaBelle - What Can I Do For You
TTITLE10=Evelyn Champagne King - Shame
TTITLE11=Mtume - Juicy Fruit
TTITLE12=Isley Brothers - Harvest For The World
TTITLE13=Bill Withers - Lovely Day
TTITLE14=Teena Marie - I Need Your Lovin'
TTITLE15=Mel And Tim - Good Guys Only Win In The Movies
EXTD=
EXTT0=
EXTT1=
EXTT2=
EXTT3=
EXTT4=
EXTT5=
EXTT6=
EXTT7=
EXTT8=
EXTT9=
EXTT10=
EXTT11=
EXTT12=
EXTT13=
EXTT14=
EXTT15=
PLAYORDER=
